# xmcd
#
# Track frame offsets:
#	150
#	26794
#	53222
#	72357
#	85285
#	105310
#	123722
#	140194
#	158954
#	181013
#
# Disc length: 2795 seconds
#
# Revision: 1
# Processed by: cddbd v1.4PL0 Copyright (c) Steve Scherf et al.
# Submitted via: audiograbber 1.81.03
#
DISCID=8c0ae90a
DTITLE=Big Bazoobies - Live!
DYEAR=1900
DGENRE=
TTITLE0=Funky Chicken
TTITLE1=Love Shack
TTITLE2=Walkin' the Dog
TTITLE3=Mellow Saxophone
TTITLE4=Signed Sealed Delivered
TTITLE5=Framed
TTITLE6=I'll go crazy
TTITLE7=From the Bottom
TTITLE8=Chain of Fools
TTITLE9=Gimme some Lovin'
EXTD=
EXTT0=
EXTT1=
EXTT2=
EXTT3=
EXTT4=
EXTT5=
EXTT6=
EXTT7=
EXTT8=
EXTT9=
PLAYORDER=
